inDegrees=no
num_controls=7
num_derivatives=13
num_iterations=74
num_multipliers=7
num_parameters=0
num_slacks=7
num_states=26
objective=0.334359
objective_accelerations=0.036344
objective_balance=0.001163
objective_effort=0.027726
objective_height=0.267655
objective_ligament=0.001471
solver_duration=781.458576
status=Solve_Succeeded
success=true
DataType=double
version=3
OpenSimVersion=4.5
endheader
time	/jointset/ground_pelvis/pelvis_tilt/value	/jointset/ground_pelvis/pelvis_tx/value	/jointset/ground_pelvis/pelvis_ty/value	/jointset/hip_r/hip_flexion_r/value	/jointset/hip_r/hip_adduction_r/value	/jointset/hip_r/hip_rotation_r/value	/jointset/back/lumbar_extension/value	/jointset/patellofemoral_r/patellar_flexion_r/value	/jointset/knee_r/knee_flexion_r/value	/jointset/knee_r/knee_adduction_r/value	/jointset/knee_r/knee_rotation_r/value	/jointset/ankle_r/ankle_angle_r/value	/jointset/subtalar_r/subtalar_angle_r/value	/jointset/ground_pelvis/pelvis_tilt/speed	/jointset/ground_pelvis/pelvis_tx/speed	/jointset/ground_pelvis/pelvis_ty/speed	/jointset/hip_r/hip_flexion_r/speed	/jointset/hip_r/hip_adduction_r/speed	/jointset/hip_r/hip_rotation_r/speed	/jointset/back/lumbar_extension/speed	/jointset/patellofemoral_r/patellar_flexion_r/speed	/jointset/knee_r/knee_flexion_r/speed	/jointset/knee_r/knee_adduction_r/speed	/jointset/knee_r/knee_rotation_r/speed	/jointset/ankle_r/ankle_angle_r/speed	/jointset/subtalar_r/subtalar_angle_r/speed	/forceset/tau_hip_flexion_r	/forceset/tau_hip_adduction_r	/forceset/tau_hip_rotation_r	/forceset/tau_knee_flexion_r	/forceset/tau_ankle_angle_r	/forceset/tau_subtalar_angle_r	/forceset/tau_lumbar_extension	lambda_cid13_p0	lambda_cid14_p0	lambda_cid14_p1	lambda_cid14_p2	lambda_cid14_p3	lambda_cid14_p4	lambda_cid14_p5	/jointset/ground_pelvis/pelvis_tilt/accel	/jointset/ground_pelvis/pelvis_tx/accel	/jointset/ground_pelvis/pelvis_ty/accel	/jointset/hip_r/hip_flexion_r/accel	/jointset/hip_r/hip_adduction_r/accel	/jointset/hip_r/hip_rotation_r/accel	/jointset/back/lumbar_extension/accel	/jointset/patellofemoral_r/patellar_flexion_r/accel	/jointset/knee_r/knee_flexion_r/accel	/jointset/knee_r/knee_adduction_r/accel	/jointset/knee_r/knee_rotation_r/accel	/jointset/ankle_r/ankle_angle_r/accel	/jointset/subtalar_r/subtalar_angle_r/accel	gamma_cid13_p0	gamma_cid14_p0	gamma_cid14_p1	gamma_cid14_p2	gamma_cid14_p3	gamma_cid14_p4	gamma_cid14_p5
1.5	-0.1155377787041223	0.0403252623688338	0.8189551949234753	0.8250027091337057	-0.226130653096616	-0.1239020806970263	-0.6275370759321456	0.9226574355184208	0.9226574355184229	-0.03359903186796797	0.1742446482224379	0.3026177883158591	0.1368481878372756	0.5418673674597331	0.218017782610044	0.4986648649742894	-2.060632596876555	-0.004243769070088842	-0.1698154445775876	0.8034901190344909	-1.923221608590873	-1.923221608590875	0.4950718771686985	0.00244540260375385	-0.5233440637431849	-0.2138391080550963	-0.1762372000896732	0.02055015299716064	0.01702533652315417	-0.2745528303397583	-0.01439149144334785	-0.006726389224338987	0.2215617554840797	-10.06051233449962	-46.79139312041321	-10.17397896480466	0.9700942389637783	-1.113002363024267	-628.2306568271784	51.87859918352762	0.1206675594657483	0.5486148518074135	-0.5270819774740355	-0.9640260033769198	-0.2740372368788429	-0.6178792871772146	1.815218359095373	-1.266311447836773	-1.266311447836773	0.4985311478591775	-0.06084816694563031	-0.6012835344193215	-0.4309748312329023	1.681760518563098e-07	1.403427952074987e-07	-1.010512018386881e-06	1.462461751285919e-06	1.597000915851435e-08	3.194964303646831e-07	-7.895361643433491e-07
1.51	-0.1101133817016562	0.04253267393184981	0.8239144992970239	0.8043501261467588	-0.2261874095716743	-0.1256320317572706	-0.6194129308621772	0.9033643085279098	0.9033643085279089	-0.0286232663674564	0.1742674515967426	0.2973549879226492	0.1346877758383594	0.5429362928311671	0.2234403786108337	0.4930903614136669	-2.069612918298924	-0.007084828219510813	-0.17630580465977	0.8212345717646142	-1.935140608477424	-1.935140608477427	0.4998976163698161	0.002150671311340076	-0.5291146240881762	-0.2181482642651408	-0.168549659739734	0.01856354596187865	0.01721011868443163	-0.2714192005480283	-0.01191339528111815	-0.007459135864963149	0.2146931600983267	-11.06901316359628	-45.71696518186985	-10.15118348161375	0.7918078825407247	-1.325159591036826	-623.3825053962443	51.93802342386095	0.08865250736366029	0.5354631045937162	-0.5884161500415619	-0.824358964069114	-0.2856074506221311	-0.6840266992562151	1.738410250782287	-1.115245894991431	-1.115245894991486	0.4469377275703876	-0.008253878560377351	-0.5496986746286366	-0.4166302350387272	1.521902085967322e-07	1.264469380610751e-07	-9.807727336822021e-07	1.351469896755252e-06	1.809430242641311e-08	3.252525834810085e-07	-8.138047621942425e-07
1.52	-0.1046805659491996	0.04479358768094951	0.828814902314029	0.783615875195108	-0.2262718700775567	-0.1274307688844405	-0.6111144709607452	0.8839598812113477	0.8839598812113439	-0.0236047749906672	0.174288414004489	0.2920375306479716	0.132487123433513	0.543551117457853	0.228718219826782	0.4868845936656357	-2.076966189817384	-0.009784575234908001	-0.1835726579627239	0.8383530853271912	-1.94548167380106	-1.945481673801061	0.5036170524242281	0.002077209292081245	-0.5342754400367463	-0.2218871892411253	-0.1608621193897949	0.01657693892659665	0.01739490084570912	-0.2682855707563591	-0.009435299118888451	-0.008191882505587333	0.2078245647125699	-12.07844794536007	-44.64302029852074	-10.12732294248029	0.6120392825516788	-1.549155544594288	-618.536733520942	52.05567409791451	0.0298474105161257	0.5196638948391313	-0.6533348149557954	-0.6386160225951397	-0.2457748100738848	-0.7731779313314987	1.690030525586085	-0.9507245352534685	-0.9507245352530483	0.2772705185180916	-0.01659431231464197	-0.4793346551345596	-0.3169285844209059	1.543663260069901e-07	1.176749605702656e-07	-1.109117282346756e-06	1.223877040802346e-06	3.845734849365516e-08	3.164420226946011e-07	-8.947651894119511e-07
1.53	-0.09924407155301994	0.04710639139053167	0.8336501802926487	0.7628164074023072	-0.2263831571743919	-0.1293039582906942	-0.6026483131687558	0.8644599481160992	0.8644599481160964	-0.01855182370391198	0.1743093999150851	0.2866710728726228	0.1302508542761594	0.54365662427704	0.2338012811101955	0.4800746746813215	-2.082641722697782	-0.01250740748804201	-0.1909035873374574	0.8547316380430693	-1.954234743750094	-1.954234743750094	0.5071205951200224	0.00205189173889947	-0.5389596675425817	-0.2253858725438403	-0.1529102270245104	0.01439592159082828	0.01765644501230812	-0.2655171191679831	-0.006935552155238885	-0.00907126963612713	0.2006819954856464	-13.0858231913179	-43.60045705052074	-10.18653094865456	0.4613778461096644	-1.569726181703478	-613.9661787397921	52.09808059329912	-0.01275823744922952	0.4964609931601021	-0.7092137163519772	-0.4891616159330071	-0.2906920385793898	-0.6885501368554763	1.589742390445426	-0.7971054670007064	-0.7971054670007663	0.4088002914696352	-0.005559357205610298	-0.4544404442196137	-0.3693506541919796	1.758395266289479e-07	1.143471052135458e-07	-1.405425903966119e-06	1.078645620838312e-06	7.819906941019925e-08	2.921543283865401e-07	-1.0359606853319e-06
1.54	-0.09380925419966218	0.04946879246256201	0.8384144804261888	0.7419687563416681	-0.2265227035148877	-0.1312455569299595	-0.5940227749004362	0.8448805828729058	0.8448805828729038	-0.01345945616092642	0.1743281208740721	0.2812594780930334	0.1279789957955796	0.5432157088934628	0.2386376923164198	0.4726890246496976	-2.086602843385014	-0.01543642396702522	-0.1972545045650358	0.8702291805932175	-1.961368103390019	-1.96136810339002	0.5115003036703233	0.001624218970236111	-0.5433028408848971	-0.2290050538863625	-0.144958334659226	0.01221490425505993	0.01791798917890693	-0.2627486675796071	-0.004435805191589315	-0.009950656766666906	0.1935394262587227	-14.08689476882496	-42.5589236740041	-10.24504603225947	0.3096068392363477	-1.597553511836078	-609.4081711759393	52.19359629927151	-0.07943703003626285	0.4703338794012973	-0.7684810244177103	-0.2957335839619357	-0.2870116552437239	-0.5771755019004671	1.513828492440124	-0.6267824734314587	-0.6267824734314588	0.4525036894319436	-0.09706535541645758	-0.411123822432218	-0.3410281923823134	1.833861309924695e-07	1.049213282628525e-07	-1.631652424258248e-06	8.887526007574557e-07	1.103660213430226e-07	2.802585787815529e-07	-1.145664983680443e-06
1.55	-0.08838150237506594	0.05187837202791826	0.8431020882367495	0.7210901134943645	-0.2266916223865696	-0.1332497048988309	-0.5852464644139117	0.8252379506584063	0.8252379506584058	-0.008323663496993587	0.174341730015809	0.2758067665342683	0.12567211044995	0.5422449951457604	0.2432413375139033	0.4647397473291989	-2.088822370565327	-0.01829758423418001	-0.2037229528495356	0.8849120704471676	-1.966872698475829	-1.966872698475826	0.5154186933987925	0.001135041284022327	-0.5471226268255981	-0.2322389024210576	-0.1372170854516939	0.009912639808285377	0.01811272512950056	-0.2601378613686031	-0.001663321106017431	-0.01084950611364704	0.1866376110182425	-15.07846221462693	-41.44448461838336	-10.30352528899667	0.1627157537646131	-1.816808936453815	-605.1407756715447	52.35398584428506	-0.1193319353590793	0.4498767192763964	-0.8220128130920713	-0.1395505720867188	-0.2782678665552736	-0.7036536723339993	1.427392292194376	-0.4694859040637528	-0.4694859040633577	0.3253272752070721	-0.01917417233179107	-0.3498098335188374	-0.2948286035861883	1.748868744495329e-07	8.846968512779887e-08	-1.777132175629874e-06	6.474016501072193e-07	1.338055220554725e-07	2.826405045953241e-07	-1.219085945696716e-06
1.56	-0.08296614636559115	0.05433288742112027	0.8477074309286599	0.7001983777178533	-0.2268876727917435	-0.1353229321866697	-0.5763269504167833	0.8055488349174673	0.805548834917468	-0.003155922803645559	0.1743515813412623	0.2703193763453702	0.1233368335350587	0.5407365458691797	0.2476248578855675	0.4562360009196555	-2.089221429226475	-0.02086273066544731	-0.2110703683585177	0.8988698827139954	-1.970664808677949	-1.970664808677945	0.517889909553368	0.0008726557134904561	-0.5502385669114938	-0.2346833677386757	-0.1294758362441618	0.007610375361510817	0.01830746108009429	-0.2575270551575765	0.001109162979554451	-0.01174835546062717	0.1797357957778147	-16.05822627878606	-40.33124710671417	-10.36253923059808	0.01628142340076917	-2.03982319753702	-600.886071362809	52.55647808397114	-0.1869841358119624	0.4263089142374425	-0.8793748422266439	0.06836011987040982	-0.2278088880662238	-0.7529689467969377	1.368812975015658	-0.2842854966924257	-0.2842854966928208	0.1630689746532071	-0.05170693228007482	-0.2703546514714064	-0.1831515489669269	1.784315469261592e-07	5.925465046092596e-08	-2.183561820584577e-06	1.048959929138218e-07	2.010187236068893e-07	2.189028061952879e-07	-1.316997108097525e-06
1.57	-0.0775685692711259	0.0568300284732416	0.8522250774353937	0.6793118040578834	-0.2271078011419892	-0.1374751576572324	-0.5672718704468659	0.7858302750683944	0.7858302750683961	0.002028682514717548	0.1743610771672726	0.2648042591761467	0.1209811102460905	0.5386941927182662	0.2517554596245245	0.4472122347730986	-2.087795766524002	-0.0231593997952377	-0.2193045589105757	0.9119809277348218	-1.972746467906225	-1.972746467906226	0.5190436497415767	0.001000283176481081	-0.5526926714700211	-0.2364180263829964	-0.1215925134200912	0.005145212514989893	0.01848356619693469	-0.2553094726471917	0.004052678086990298	-0.01275535685238408	0.1727088944936577	-17.02451057231888	-39.19963120959954	-10.47710957851992	-0.1078136396751727	-2.191888538150761	-597.0038768631536	52.7362662679304	-0.2255575118024578	0.3993304968714417	-0.9260397025647722	0.2242991067045164	-0.2305517824859349	-0.8480495995199511	1.257472735420152	-0.1250436993321483	-0.1250436993325175	0.09288252887948539	0.04074467442911334	-0.2189710375852363	-0.1628211552081483	1.970311306772392e-07	1.408537637927913e-08	-2.91617883251812e-06	-8.140530474585238e-07	3.229490512070139e-07	7.251557752799366e-08	-1.445521020979005e-06
1.58	-0.07219395502958409	0.0593670544813819	0.8566500538403228	0.6584484129771918	-0.2273508873549429	-0.1397076061313378	-0.5580906355327796	0.7660999111143514	0.7660999111143539	0.007225096432557985	0.1743709986856806	0.2592673944254315	0.1186092007440704	0.5361439752844963	0.2556018490893657	0.4377019805587324	-2.084584913370779	-0.02545430320704744	-0.2271149690670893	0.9241008715478101	-1.973025629671977	-1.973025629671979	0.5202516294488621	0.0009577941929573801	-0.5545880832098091	-0.2379206103490575	-0.1137091905960207	0.002680049668468967	0.01865967131377521	-0.2530918901368069	0.006996193194426141	-0.01376235824414101	0.1656819932095007	-17.97604683635124	-38.06925994891749	-10.59432407532631	-0.228715243417759	-2.336085048529851	-593.1339225840514	52.90558711878322	-0.2885569923832715	0.36946645941427	-0.9766724557884686	0.4253982100206886	-0.2274557444700894	-0.6682128676880439	1.170592733448027	0.07621399581265283	0.07621399581265292	0.1739168784770297	-0.08573022159630161	-0.158616087682293	-0.1367366133149952	2.092656948768696e-07	-3.277752235554503e-08	-3.592313419467887e-06	-1.778390680447558e-06	4.391799795827771e-07	-8.544059563787874e-08	-1.489925115773538e-06
1.59	-0.06684765556969484	0.06194090119765965	0.8609775773208419	0.6376266288725958	-0.2276162328530838	-0.1420190416384249	-0.5487935396178353	0.7463755304845039	0.7463755304845044	0.01243081196778857	0.1743812135455916	0.2537142675312226	0.1162244070853229	0.533012318257995	0.2590975205844159	0.4277301910888962	-2.079433697268052	-0.0276200571157202	-0.2350650323846787	0.9351061081623385	-1.971549756774561	-1.971549756774555	0.5209489938486721	0.001057289478264676	-0.5559757072589335	-0.2390239793018334	-0.1056051276795706	0.0003169029553056921	0.01861034629720306	-0.2510800385661502	0.009720210637282099	-0.01473969503500577	0.1584171248455458	-18.912151050976	-37.03651347197815	-10.71438546323893	-0.3507211014823567	-2.242003176387396	-589.5918357851758	53.08766013840442	-0.3410043554369074	0.3292439243377439	-1.018383379001115	0.6107049521989486	-0.2128587503052654	-0.8424645735611641	1.033658633645222	0.2283418640945048	0.2283418640951743	0.02549439774860529	0.05288891772728099	-0.1193960187964554	-0.09614234863612962	2.128620182566762e-07	-8.193891169110973e-08	-4.191793286796817e-06	-2.804327117702095e-06	5.476760090111932e-07	-2.590974791946777e-07	-1.42016660030722e-06
